<?xml version="1.0" standalone="no"?>
<!DOCTYPE svg PUBLIC "-//W3C//DTD SVG 20010904//EN"
 "http://www.w3.org/TR/2001/REC-SVG-20010904/DTD/svg10.dtd">
<svg version="1.0" xmlns="http://www.w3.org/2000/svg"
 width="500.000000pt" height="500.000000pt" viewBox="0 0 500.000000 500.000000"
 preserveAspectRatio="xMidYMid meet">
<metadata>
Created by potrace 1.14, written by Peter Selinger 2001-2017
</metadata>
<g transform="translate(0.000000,500.000000) scale(0.100000,-0.100000)"
fill="#000000" stroke="none">
<path d="M2500 3986 c-3 -3 -44 -7 -90 -10 -47 -4 -96 -9 -110 -12 -14 -3 -38
-7 -55 -10 -54 -8 -60 -9 -73 -18 -7 -4 -16 -5 -19 -2 -4 3 -17 -1 -31 -10
-17 -11 -22 -12 -16 -3 6 11 5 12 -7 2 -8 -6 -25 -13 -39 -15 -14 -1 -31 -9
-39 -16 -7 -7 -20 -11 -27 -8 -8 3 -14 1 -14 -4 0 -6 -9 -10 -20 -10 -11 0
-20 -5 -20 -10 0 -6 -3 -9 -7 -8 -5 0 -24 -6 -43 -15 -19 -8 -39 -13 -44 -10
-5 4 -6 1 -3 -4 6 -10 -14 -25 -36 -27 -4 -1 -12 -8 -17 -16 -8 -12 -10 -12
-10 -1 0 8 -8 4 -21 -10 -11 -13 -18 -17 -14 -9 4 10 2 9 -8 -2 -8 -10 -17
-18 -21 -18 -4 0 -19 -11 -33 -24 -15 -14 -30 -23 -35 -20 -4 3 -8 -2 -8 -11
0 -9 -4 -14 -8 -11 -5 3 -15 -3 -23 -12 -8 -9 -27 -26 -41 -36 -15 -11 -25
-23 -22 -28 3 -4 0 -8 -7 -8 -14 0 -99 -87 -99 -101 0 -6 -5 -7 -10 -4 -6 3
-13 -2 -17 -12 -6 -18 -13 -27 -53 -70 -11 -13 -18 -23 -15 -23 3 0 -2 -9 -12
-19 -10 -11 -27 -37 -38 -58 -11 -21 -22 -40 -26 -43 -8 -7 -96 -191 -105
-220 -5 -14 -7 -28 -6 -32 1 -5 -3 -8 -9 -8 -5 0 -7 -5 -4 -10 4 -6 2 -16 -3
-23 -6 -7 -13 -26 -16 -42 -2 -17 -5 -32 -6 -35 -1 -3 -2 -8 -1 -12 0 -5 -4
-8 -10 -8 -8 0 -7 -6 2 -17 8 -9 9 -14 3 -10 -7 4 -14 -2 -17 -13 -3 -13 -1
-18 6 -13 7 4 6 -1 -2 -10 -7 -9 -10 -17 -6 -17 4 0 3 -6 -2 -12 -5 -7 -9 -28
-8 -45 0 -18 -2 -33 -5 -33 -4 0 -6 -20 -5 -45 0 -25 -2 -45 -5 -45 -6 0 -5
-184 2 -196 2 -5 4 -24 4 -41 -1 -18 1 -33 4 -33 3 0 6 -10 6 -22 5 -72 15
-120 29 -130 6 -5 5 -8 -4 -8 -10 0 -11 -3 -2 -13 6 -8 8 -17 4 -20 -3 -4 -1
-7 5 -7 7 0 12 -7 12 -16 0 -14 40 -144 57 -184 3 -8 5 -18 5 -22 -1 -5 2 -8
6 -8 4 0 14 -20 21 -45 7 -25 17 -42 22 -39 5 3 9 -1 9 -9 0 -20 42 -100 58
-110 7 -5 10 -12 7 -18 -4 -5 -1 -9 4 -9 6 0 11 -7 11 -15 0 -8 5 -15 11 -15
5 0 7 -4 4 -10 -3 -5 1 -10 9 -10 13 0 21 -12 15 -22 -4 -7 107 -115 114 -111
4 2 6 1 5 -4 -3 -9 66 -83 77 -83 3 0 18 -12 33 -26 15 -14 39 -32 55 -40 15
-8 27 -19 27 -24 0 -6 7 -10 15 -10 8 0 15 -4 15 -10 0 -5 7 -10 15 -10 8 0
15 -5 15 -12 0 -6 3 -9 6 -5 4 3 12 1 20 -6 30 -27 44 -37 49 -37 3 0 18 -6
34 -14 16 -9 32 -12 36 -8 5 4 5 1 1 -5 -4 -8 -1 -13 8 -13 9 0 16 -4 16 -10
0 -5 5 -10 11 -10 5 0 7 6 4 13 -4 6 1 3 9 -7 9 -11 16 -17 16 -13 0 4 11 0
25 -9 14 -9 32 -14 40 -10 9 3 13 2 10 -4 -3 -6 2 -10 13 -10 10 0 22 -3 26
-7 3 -4 14 -9 24 -11 9 -2 26 -5 37 -8 11 -2 35 -7 53 -10 17 -4 32 -9 32 -13
0 -3 12 -7 28 -8 87 -5 112 -8 112 -13 0 -3 33 -5 73 -5 39 1 80 -2 91 -8 10
-5 16 -5 13 0 -3 4 27 9 66 10 82 1 145 8 177 18 17 6 21 4 14 -6 -6 -11 -5
-12 8 -2 8 7 18 10 21 6 4 -3 7 -2 7 4 0 6 15 14 33 17 52 10 60 12 110 25 26
8 47 17 47 22 0 5 7 5 17 2 12 -5 14 -3 8 7 -5 8 -4 11 3 7 15 -10 43 3 35 16
-3 6 -1 7 5 3 11 -7 51 11 64 29 4 6 8 7 8 3 0 -4 15 1 33 12 17 11 49 28 69
38 21 11 35 22 31 25 -3 4 -1 7 5 7 7 0 34 16 61 35 26 19 54 35 61 35 7 0 10
3 7 6 -9 9 33 45 45 38 4 -3 7 -2 6 3 -2 4 1 9 5 10 5 1 22 19 38 39 16 20 29
33 29 29 0 -4 10 5 22 20 12 15 31 37 42 49 12 13 30 35 41 51 11 16 26 34 33
42 7 7 11 13 8 13 -3 0 6 12 19 26 14 15 25 33 25 40 0 8 5 14 10 14 6 0 10 7
10 15 0 8 9 24 20 35 11 11 15 20 8 20 -6 0 -4 6 6 13 9 7 18 19 20 27 1 8 14
39 29 68 14 28 24 52 21 52 -2 0 3 11 12 25 9 14 13 25 10 25 -4 0 0 10 9 23
8 13 12 26 9 30 -3 3 -2 12 2 19 9 13 14 33 16 56 1 6 4 12 8 12 4 0 6 11 5
25 -2 14 0 25 4 25 4 0 6 12 6 28 -1 15 1 32 4 37 6 11 9 40 12 98 1 20 5 40
10 42 4 3 4 17 -1 30 -6 17 -6 25 1 25 6 0 7 5 4 11 -11 17 -11 79 0 79 7 0 7
3 0 8 -6 4 -11 32 -12 62 -2 100 -2 102 -15 94 -10 -6 -9 -3 0 8 10 12 11 22
3 36 -6 11 -8 22 -4 25 3 4 2 12 -4 19 -5 7 -8 23 -7 36 0 12 -3 22 -8 22 -5
0 -7 3 -4 8 2 4 -4 31 -14 59 -10 28 -15 54 -12 57 3 3 1 6 -4 6 -5 0 -11 12
-12 28 -1 15 -7 29 -12 30 -6 2 -10 9 -10 16 0 18 -24 66 -33 66 -5 0 -5 5 -2
11 4 6 -1 17 -11 25 -11 9 -14 13 -7 10 8 -5 8 0 0 18 -7 13 -15 22 -19 20 -5
-3 -8 4 -8 15 0 12 -4 21 -9 21 -5 0 -14 15 -22 33 -7 17 -21 39 -31 48 -10 9
-18 20 -18 25 0 5 -15 26 -33 46 -17 21 -43 52 -57 69 -35 43 -50 59 -59 59
-4 0 -14 11 -21 25 -7 13 -17 22 -22 19 -4 -3 -8 2 -8 10 0 9 -6 16 -13 16 -7
0 -18 9 -25 20 -7 11 -19 20 -28 20 -8 0 -12 5 -9 10 3 6 -1 10 -9 10 -9 0
-16 7 -16 16 0 8 -4 13 -8 10 -5 -3 -18 4 -30 14 -12 11 -26 20 -32 20 -5 0
-10 5 -10 10 0 6 -7 10 -15 10 -8 0 -15 5 -15 10 0 6 -7 10 -15 10 -8 0 -15 5
-15 11 0 5 -4 8 -9 4 -5 -3 -12 -1 -16 4 -7 13 -64 41 -82 41 -7 0 -13 5 -13
10 0 6 -9 10 -20 10 -11 0 -20 5 -20 11 0 5 -4 8 -9 4 -5 -3 -12 -1 -16 5 -4
6 -11 8 -16 5 -5 -4 -9 -1 -9 6 0 7 -3 9 -7 6 -3 -4 -12 -2 -20 4 -7 6 -13 9
-13 6 0 -4 -21 3 -46 13 -25 11 -50 18 -55 14 -5 -3 -9 0 -9 5 0 6 -5 11 -11
11 -5 0 -7 -5 -3 -11 3 -6 -4 -4 -17 4 -13 9 -40 17 -59 18 -19 2 -39 5 -45 8
-11 6 -15 7 -98 15 -32 3 -63 8 -68 12 -5 3 -9 0 -9 -7 0 -10 -3 -10 -11 -2
-8 8 -20 8 -35 3 -14 -6 -24 -5 -26 1 -2 6 -6 8 -8 5z"/>
</g>
</svg>
